<!DOCTYPE svg PUBLIC "-//W3C//DTD SVG 1.1//EN" "http://www.w3.org/Graphics/SVG/1.1/DTD/svg11.dtd">
<!-- Uploaded to: SVG Repo, www.svgrepo.com, Transformed by: SVG Repo Mixer Tools -->
<svg width="800px" height="800px" viewBox="0 0 24 24" xmlns="http://www.w3.org/2000/svg" fill="#e3e3e3" stroke="#e3e3e3">
<g id="SVGRepo_bgCarrier" stroke-width="0"/>
<g id="SVGRepo_tracerCarrier" stroke-linecap="round" stroke-linejoin="round"/>
<g id="SVGRepo_iconCarrier"> <g> <path fill="none" d="M0 0h24v24H0z"/> <path d="M2 9.5V4a1 1 0 0 1 1-1h18a1 1 0 0 1 1 1v5.5a2.5 2.5 0 1 0 0 5V20a1 1 0 0 1-1 1H3a1 1 0 0 1-1-1v-5.5a2.5 2.5 0 1 0 0-5zM9 9v2h6V9H9zm0 4v2h6v-2H9z"/> </g> </g>
</svg>