<!DOCTYPE svg PUBLIC "-//W3C//DTD SVG 1.1//EN" "http://www.w3.org/Graphics/SVG/1.1/DTD/svg11.dtd">
<!-- Uploaded to: SVG Repo, www.svgrepo.com, Transformed by: SVG Repo Mixer Tools -->
<svg fill="#dedede" height="800px" width="800px" version="1.1" id="Capa_1" xmlns="http://www.w3.org/2000/svg" xmlns:xlink="http://www.w3.org/1999/xlink" viewBox="0 0 198.845 198.845" xml:space="preserve" stroke="#dedede">
<g id="SVGRepo_bgCarrier" stroke-width="0"/>
<g id="SVGRepo_tracerCarrier" stroke-linecap="round" stroke-linejoin="round"/>
<g id="SVGRepo_iconCarrier"> <path d="M46.879,43.121c0.768-9.475,8.804-16.898,18.295-16.898c0.5,0,1.007,0.021,1.509,0.062 c10.102,0.818,17.654,9.701,16.837,19.803c-0.768,9.475-8.803,16.898-18.294,16.898c-0.5,0-1.007-0.021-1.509-0.062 C53.616,62.106,46.063,53.222,46.879,43.121z M53.382,70.406l-5.313,25.126l13.335,1.835l0.135-5.902 c0.001-0.016,0.001-0.032,0.001-0.047l0.426-18.627C58.922,72.443,56.036,71.625,53.382,70.406z M71.983,72.155l-0.414,18.12 l10.126-1.58l-4.689-18.314C75.403,71.124,73.723,71.722,71.983,72.155z M177.562,5v149.647c0,0.028-0.008,0.055-0.008,0.083 c-0.005,0.291-0.029,0.581-0.084,0.865c-0.006,0.031-0.018,0.061-0.024,0.092c-0.053,0.252-0.128,0.498-0.22,0.739 c-0.031,0.082-0.068,0.161-0.103,0.242c-0.086,0.194-0.184,0.381-0.295,0.564c-0.044,0.073-0.086,0.147-0.134,0.219 c-0.163,0.24-0.342,0.472-0.549,0.685l-38.178,39.198c-0.237,0.243-0.496,0.459-0.773,0.647c-0.127,0.086-0.267,0.144-0.4,0.218 c-0.157,0.087-0.308,0.186-0.474,0.256c-0.161,0.068-0.332,0.104-0.499,0.154c-0.15,0.045-0.294,0.106-0.448,0.137 c-0.301,0.061-0.607,0.087-0.915,0.092c-0.025,0-0.049,0.007-0.073,0.007H26.283c-2.762,0-5-2.239-5-5V5c0-2.761,2.238-5,5-5 h146.279C175.324,0,177.562,2.239,177.562,5z M103.666,30.688c0,2.761,2.238,5,5,5h44.808c2.762,0,5-2.239,5-5s-2.238-5-5-5h-44.808 C105.904,25.688,103.666,27.926,103.666,30.688z M103.666,51.933c0,2.761,2.238,5,5,5h44.808c2.762,0,5-2.239,5-5s-2.238-5-5-5 h-44.808C105.904,46.933,103.666,49.171,103.666,51.933z M103.666,73.178c0,2.761,2.238,5,5,5h44.808c2.762,0,5-2.239,5-5 s-2.238-5-5-5h-44.808C105.904,68.178,103.666,70.417,103.666,73.178z M41.384,104.707l24.209,3.332 c0.228,0.031,0.455,0.047,0.682,0.047c1.181,0,2.332-0.418,3.242-1.194c1.085-0.924,1.724-2.267,1.757-3.692l0.063-2.767 l17.338-2.705c1.393-0.217,2.629-1.012,3.404-2.189s1.019-2.626,0.669-3.992l-7.021-27.426c4.348-4.565,7.221-10.565,7.761-17.228 C94.75,31.296,83.087,17.58,67.49,16.316c-0.769-0.062-1.548-0.094-2.315-0.094c-14.663,0-27.077,11.46-28.262,26.091 c-0.671,8.295,2.313,16.058,7.601,21.698l-7.339,34.707c-0.287,1.358,0.003,2.774,0.802,3.91 C38.774,103.765,40.009,104.518,41.384,104.707z M153.473,132.845c2.762,0,5-2.239,5-5s-2.238-5-5-5H44.849c-2.762,0-5,2.239-5,5 s2.238,5,5,5H153.473z M160.712,159.647h-21.328v21.898L160.712,159.647z"/> </g>
</svg>