<!DOCTYPE svg PUBLIC "-//W3C//DTD SVG 1.1//EN" "http://www.w3.org/Graphics/SVG/1.1/DTD/svg11.dtd">
<!-- Uploaded to: SVG Repo, www.svgrepo.com, Transformed by: SVG Repo Mixer Tools -->
<svg height="800px" width="800px" version="1.1" id="Capa_1" xmlns="http://www.w3.org/2000/svg" xmlns:xlink="http://www.w3.org/1999/xlink" viewBox="0 0 32 32" xml:space="preserve" fill="#000000">
<g id="SVGRepo_bgCarrier" stroke-width="0"/>
<g id="SVGRepo_tracerCarrier" stroke-linecap="round" stroke-linejoin="round"/>
<g id="SVGRepo_iconCarrier"> <g> <g id="loop_x5F_alt2"> <g> <path style="fill:#e6e6e6;" d="M19.945,22l6.008-8L32,22h-4v2c0,3.309-2.691,6-6,6H10c-3.309,0-6-2.691-6-6v-2h4v2 c0,1.102,0.898,2,2,2h12c1.102,0,2-0.898,2-2v-2H19.945z"/> <path style="fill:#e6e6e6;" d="M12.055,10l-6.008,8L0,10h4V8c0-3.309,2.691-6,6-6h12c3.309,0,6,2.691,6,6v2h-4V8 c0-1.102-0.898-2-2-2H10C8.898,6,8,6.898,8,8v2H12.055z"/> </g> </g> </g> </g>
</svg>